<svg xmlns="http://www.w3.org/2000/svg" xmlns:v="https://svgstorm.com"
viewBox = "0 0 491 491"
width="491"
height="491">
<g fill="None" fill-opacity="0.0" stroke="#00D0EC" stroke-opacity="0.00" stroke-width="0.3"><path d="
M 0.00 491.00 
L 491.00 491.00
L 491.00 0.00
L 0.00 0.00
L 0.00 491.00
M 68.00 62.00 
C 77.79 64.48 74.57 82.03 63.78 79.22 C 52.99 76.41 56.88 59.18 68.00 62.00
M 126.00 62.00 
C 135.79 64.48 132.57 82.03 121.78 79.22 C 110.99 76.41 114.88 59.18 126.00 62.00
M 184.00 62.00 
C 193.79 64.48 190.57 82.03 179.78 79.22 C 168.99 76.41 172.88 59.18 184.00 62.00
M 242.00 62.00 
C 251.79 64.48 248.57 82.03 237.78 79.22 C 226.99 76.41 230.88 59.18 242.00 62.00
M 300.00 62.00 
C 309.79 64.48 306.57 82.03 295.78 79.22 C 284.99 76.41 288.88 59.18 300.00 62.00
M 358.00 62.00 
C 367.79 64.48 364.57 82.03 353.78 79.22 C 342.99 76.41 346.88 59.18 358.00 62.00
M 416.00 62.00 
C 425.79 64.48 422.57 82.03 411.78 79.22 C 400.99 76.41 404.88 59.18 416.00 62.00
M 68.00 120.00 
C 77.81 122.49 74.54 139.94 63.78 137.22 C 53.01 134.49 56.85 117.17 68.00 120.00
M 126.00 120.00 
C 135.81 122.49 132.55 139.94 121.78 137.22 C 111.01 134.49 114.85 117.17 126.00 120.00
M 184.00 120.00 
C 193.81 122.49 190.54 139.94 179.78 137.22 C 169.01 134.49 172.85 117.17 184.00 120.00
M 242.00 120.00 
C 251.81 122.49 248.54 139.94 237.78 137.22 C 227.01 134.49 230.85 117.17 242.00 120.00
M 300.00 120.00 
C 309.81 122.49 306.54 139.94 295.78 137.22 C 285.01 134.49 288.85 117.17 300.00 120.00
M 358.00 120.00 
C 367.81 122.49 364.54 139.94 353.78 137.22 C 343.01 134.49 346.85 117.17 358.00 120.00
M 416.00 120.00 
C 425.81 122.49 422.54 139.94 411.78 137.22 C 401.01 134.49 404.85 117.17 416.00 120.00
M 68.00 178.00 
C 77.81 180.49 74.54 197.94 63.78 195.22 C 53.01 192.49 56.85 175.17 68.00 178.00
M 126.00 178.00 
C 135.81 180.49 132.54 197.94 121.78 195.22 C 111.01 192.49 114.85 175.17 126.00 178.00
M 184.00 178.00 
C 193.81 180.49 190.54 197.94 179.78 195.22 C 169.01 192.49 172.85 175.17 184.00 178.00
M 242.00 178.00 
C 251.81 180.49 248.54 197.94 237.78 195.22 C 227.01 192.49 230.85 175.17 242.00 178.00
M 300.00 178.00 
C 309.81 180.49 306.54 197.94 295.78 195.22 C 285.01 192.49 288.85 175.17 300.00 178.00
M 358.00 178.00 
C 367.81 180.49 364.55 197.94 353.78 195.22 C 343.01 192.49 346.85 175.17 358.00 178.00
M 416.00 178.00 
C 425.81 180.49 422.54 197.94 411.78 195.22 C 401.01 192.49 404.85 175.17 416.00 178.00
M 68.00 236.00 
C 77.79 238.48 74.57 256.03 63.78 253.22 C 52.99 250.41 56.88 233.18 68.00 236.00
M 126.00 236.00 
C 135.79 238.48 132.57 256.03 121.78 253.22 C 110.99 250.41 114.88 233.18 126.00 236.00
M 184.00 236.00 
C 193.79 238.48 190.57 256.03 179.78 253.22 C 168.99 250.41 172.88 233.18 184.00 236.00
M 242.00 236.00 
C 251.79 238.48 248.57 256.03 237.78 253.22 C 226.99 250.41 230.88 233.18 242.00 236.00
M 300.00 236.00 
C 309.79 238.48 306.57 256.03 295.78 253.22 C 284.99 250.41 288.88 233.18 300.00 236.00
M 358.00 236.00 
C 367.79 238.48 364.57 256.03 353.78 253.22 C 342.99 250.41 346.88 233.18 358.00 236.00
M 416.00 236.00 
C 425.79 238.48 422.57 256.03 411.78 253.22 C 400.99 250.41 404.88 233.18 416.00 236.00
M 68.00 294.00 
C 77.81 296.49 74.54 313.94 63.78 311.22 C 53.01 308.49 56.85 291.17 68.00 294.00
M 126.00 294.00 
C 135.81 296.49 132.54 313.94 121.78 311.22 C 111.01 308.49 114.85 291.17 126.00 294.00
M 184.00 294.00 
C 193.81 296.49 190.54 313.94 179.78 311.22 C 169.01 308.49 172.85 291.17 184.00 294.00
M 242.00 294.00 
C 251.81 296.49 248.54 313.94 237.78 311.22 C 227.01 308.49 230.85 291.17 242.00 294.00
M 300.00 294.00 
C 309.81 296.49 306.54 313.94 295.78 311.22 C 285.01 308.49 288.85 291.17 300.00 294.00
M 358.00 294.00 
C 367.81 296.49 364.54 313.94 353.78 311.22 C 343.01 308.49 346.85 291.17 358.00 294.00
M 416.00 294.00 
C 425.81 296.49 422.54 313.94 411.78 311.22 C 401.01 308.49 404.85 291.17 416.00 294.00
M 68.00 352.00 
C 77.81 354.49 74.54 371.94 63.78 369.22 C 53.01 366.49 56.85 349.17 68.00 352.00
M 126.00 352.00 
C 135.81 354.49 132.54 371.94 121.78 369.22 C 111.01 366.49 114.85 349.17 126.00 352.00
M 184.00 352.00 
C 193.81 354.49 190.54 371.94 179.78 369.22 C 169.01 366.49 172.85 349.17 184.00 352.00
M 242.00 352.00 
C 251.81 354.49 248.54 371.94 237.78 369.22 C 227.01 366.49 230.85 349.17 242.00 352.00
M 300.00 352.00 
C 309.81 354.49 306.54 371.94 295.78 369.22 C 285.01 366.49 288.85 349.17 300.00 352.00
M 358.00 352.00 
C 367.81 354.49 364.54 371.94 353.78 369.22 C 343.01 366.49 346.85 349.17 358.00 352.00
M 416.00 352.00 
C 425.81 354.49 422.54 371.94 411.78 369.22 C 401.01 366.49 404.85 349.17 416.00 352.00
M 68.00 410.00 
C 77.79 412.48 74.57 430.03 63.78 427.22 C 52.99 424.41 56.88 407.18 68.00 410.00
M 126.00 410.00 
C 135.79 412.48 132.57 430.03 121.78 427.22 C 110.99 424.41 114.88 407.18 126.00 410.00
M 184.00 410.00 
C 193.79 412.48 190.57 430.03 179.78 427.22 C 168.99 424.41 172.88 407.18 184.00 410.00
M 242.00 410.00 
C 251.79 412.48 248.57 430.03 237.78 427.22 C 226.99 424.41 230.88 407.18 242.00 410.00
M 300.00 410.00 
C 309.79 412.48 306.57 430.03 295.78 427.22 C 284.99 424.41 288.88 407.18 300.00 410.00
M 358.00 410.00 
C 367.79 412.48 364.57 430.03 353.78 427.22 C 342.99 424.41 346.88 407.18 358.00 410.00
M 416.00 410.00 
C 425.79 412.48 422.57 430.03 411.78 427.22 C 400.99 424.41 404.88 407.18 416.00 410.00 Z"/>
</g>
<g fill="None" fill-opacity="0.0" stroke="#00D0EC" stroke-opacity="0.98" stroke-width="0.3"><path d="
M 68.00 62.00 
C 56.88 59.18 52.99 76.41 63.78 79.22 C 74.57 82.03 77.79 64.48 68.00 62.00 Z"/>
</g>
<g fill="None" fill-opacity="0.0" stroke="#00D0EC" stroke-opacity="0.98" stroke-width="0.3"><path d="
M 126.00 62.00 
C 114.88 59.18 110.99 76.41 121.78 79.22 C 132.57 82.03 135.79 64.48 126.00 62.00 Z"/>
</g>
<g fill="None" fill-opacity="0.0" stroke="#00D0EC" stroke-opacity="0.98" stroke-width="0.3"><path d="
M 184.00 62.00 
C 172.88 59.18 168.99 76.41 179.78 79.22 C 190.57 82.03 193.79 64.48 184.00 62.00 Z"/>
</g>
<g fill="None" fill-opacity="0.0" stroke="#00D0EC" stroke-opacity="0.98" stroke-width="0.3"><path d="
M 242.00 62.00 
C 230.88 59.18 226.99 76.41 237.78 79.22 C 248.57 82.03 251.79 64.48 242.00 62.00 Z"/>
</g>
<g fill="None" fill-opacity="0.0" stroke="#00D0EC" stroke-opacity="0.98" stroke-width="0.3"><path d="
M 300.00 62.00 
C 288.88 59.18 284.99 76.41 295.78 79.22 C 306.57 82.03 309.79 64.48 300.00 62.00 Z"/>
</g>
<g fill="None" fill-opacity="0.0" stroke="#00D0EC" stroke-opacity="0.98" stroke-width="0.3"><path d="
M 358.00 62.00 
C 346.88 59.18 342.99 76.41 353.78 79.22 C 364.57 82.03 367.79 64.48 358.00 62.00 Z"/>
</g>
<g fill="None" fill-opacity="0.0" stroke="#00D0EC" stroke-opacity="0.98" stroke-width="0.3"><path d="
M 416.00 62.00 
C 404.88 59.18 400.99 76.41 411.78 79.22 C 422.57 82.03 425.79 64.48 416.00 62.00 Z"/>
</g>
<g fill="None" fill-opacity="0.0" stroke="#00D0EC" stroke-opacity="0.98" stroke-width="0.3"><path d="
M 68.00 120.00 
C 56.85 117.17 53.01 134.49 63.78 137.22 C 74.54 139.94 77.81 122.49 68.00 120.00 Z"/>
</g>
<g fill="None" fill-opacity="0.0" stroke="#00D0EC" stroke-opacity="0.98" stroke-width="0.3"><path d="
M 126.00 120.00 
C 114.85 117.17 111.01 134.49 121.78 137.22 C 132.55 139.94 135.81 122.49 126.00 120.00 Z"/>
</g>
<g fill="None" fill-opacity="0.0" stroke="#00D0EC" stroke-opacity="0.98" stroke-width="0.3"><path d="
M 184.00 120.00 
C 172.85 117.17 169.01 134.49 179.78 137.22 C 190.54 139.94 193.81 122.49 184.00 120.00 Z"/>
</g>
<g fill="None" fill-opacity="0.0" stroke="#00D0EC" stroke-opacity="0.98" stroke-width="0.3"><path d="
M 242.00 120.00 
C 230.85 117.17 227.01 134.49 237.78 137.22 C 248.54 139.94 251.81 122.49 242.00 120.00 Z"/>
</g>
<g fill="None" fill-opacity="0.0" stroke="#00D0EC" stroke-opacity="0.98" stroke-width="0.3"><path d="
M 300.00 120.00 
C 288.85 117.17 285.01 134.49 295.78 137.22 C 306.54 139.94 309.81 122.49 300.00 120.00 Z"/>
</g>
<g fill="None" fill-opacity="0.0" stroke="#00D0EC" stroke-opacity="0.98" stroke-width="0.3"><path d="
M 358.00 120.00 
C 346.85 117.17 343.01 134.49 353.78 137.22 C 364.54 139.94 367.81 122.49 358.00 120.00 Z"/>
</g>
<g fill="None" fill-opacity="0.0" stroke="#00D0EC" stroke-opacity="0.98" stroke-width="0.3"><path d="
M 416.00 120.00 
C 404.85 117.17 401.01 134.49 411.78 137.22 C 422.54 139.94 425.81 122.49 416.00 120.00 Z"/>
</g>
<g fill="None" fill-opacity="0.0" stroke="#00D0EC" stroke-opacity="0.98" stroke-width="0.3"><path d="
M 68.00 178.00 
C 56.85 175.17 53.01 192.49 63.78 195.22 C 74.54 197.94 77.81 180.49 68.00 178.00 Z"/>
</g>
<g fill="None" fill-opacity="0.0" stroke="#00D0EC" stroke-opacity="0.98" stroke-width="0.3"><path d="
M 126.00 178.00 
C 114.85 175.17 111.01 192.49 121.78 195.22 C 132.54 197.94 135.81 180.49 126.00 178.00 Z"/>
</g>
<g fill="None" fill-opacity="0.0" stroke="#00D0EC" stroke-opacity="0.98" stroke-width="0.3"><path d="
M 184.00 178.00 
C 172.85 175.17 169.01 192.49 179.78 195.22 C 190.54 197.94 193.81 180.49 184.00 178.00 Z"/>
</g>
<g fill="None" fill-opacity="0.0" stroke="#00D0EC" stroke-opacity="0.98" stroke-width="0.3"><path d="
M 242.00 178.00 
C 230.85 175.17 227.01 192.49 237.78 195.22 C 248.54 197.94 251.81 180.49 242.00 178.00 Z"/>
</g>
<g fill="None" fill-opacity="0.0" stroke="#00D0EC" stroke-opacity="0.98" stroke-width="0.3"><path d="
M 300.00 178.00 
C 288.85 175.17 285.01 192.49 295.78 195.22 C 306.54 197.94 309.81 180.49 300.00 178.00 Z"/>
</g>
<g fill="None" fill-opacity="0.0" stroke="#00D0EC" stroke-opacity="0.98" stroke-width="0.3"><path d="
M 358.00 178.00 
C 346.85 175.17 343.01 192.49 353.78 195.22 C 364.55 197.94 367.81 180.49 358.00 178.00 Z"/>
</g>
<g fill="None" fill-opacity="0.0" stroke="#00D0EC" stroke-opacity="0.98" stroke-width="0.3"><path d="
M 416.00 178.00 
C 404.85 175.17 401.01 192.49 411.78 195.22 C 422.54 197.94 425.81 180.49 416.00 178.00 Z"/>
</g>
<g fill="None" fill-opacity="0.0" stroke="#00D0EC" stroke-opacity="0.98" stroke-width="0.3"><path d="
M 68.00 236.00 
C 56.88 233.18 52.99 250.41 63.78 253.22 C 74.57 256.03 77.79 238.48 68.00 236.00 Z"/>
</g>
<g fill="None" fill-opacity="0.0" stroke="#00D0EC" stroke-opacity="0.98" stroke-width="0.3"><path d="
M 126.00 236.00 
C 114.88 233.18 110.99 250.41 121.78 253.22 C 132.57 256.03 135.79 238.48 126.00 236.00 Z"/>
</g>
<g fill="None" fill-opacity="0.0" stroke="#00D0EC" stroke-opacity="0.98" stroke-width="0.3"><path d="
M 184.00 236.00 
C 172.88 233.18 168.99 250.41 179.78 253.22 C 190.57 256.03 193.79 238.48 184.00 236.00 Z"/>
</g>
<g fill="None" fill-opacity="0.0" stroke="#00D0EC" stroke-opacity="0.98" stroke-width="0.3"><path d="
M 242.00 236.00 
C 230.88 233.18 226.99 250.41 237.78 253.22 C 248.57 256.03 251.79 238.48 242.00 236.00 Z"/>
</g>
<g fill="None" fill-opacity="0.0" stroke="#00D0EC" stroke-opacity="0.98" stroke-width="0.3"><path d="
M 300.00 236.00 
C 288.88 233.18 284.99 250.41 295.78 253.22 C 306.57 256.03 309.79 238.48 300.00 236.00 Z"/>
</g>
<g fill="None" fill-opacity="0.0" stroke="#00D0EC" stroke-opacity="0.98" stroke-width="0.3"><path d="
M 358.00 236.00 
C 346.88 233.18 342.99 250.41 353.78 253.22 C 364.57 256.03 367.79 238.48 358.00 236.00 Z"/>
</g>
<g fill="None" fill-opacity="0.0" stroke="#00D0EC" stroke-opacity="0.98" stroke-width="0.3"><path d="
M 416.00 236.00 
C 404.88 233.18 400.99 250.41 411.78 253.22 C 422.57 256.03 425.79 238.48 416.00 236.00 Z"/>
</g>
<g fill="None" fill-opacity="0.0" stroke="#00D0EC" stroke-opacity="0.98" stroke-width="0.3"><path d="
M 68.00 294.00 
C 56.85 291.17 53.01 308.49 63.78 311.22 C 74.54 313.94 77.81 296.49 68.00 294.00 Z"/>
</g>
<g fill="None" fill-opacity="0.0" stroke="#00D0EC" stroke-opacity="0.98" stroke-width="0.3"><path d="
M 126.00 294.00 
C 114.85 291.17 111.01 308.49 121.78 311.22 C 132.54 313.94 135.81 296.49 126.00 294.00 Z"/>
</g>
<g fill="None" fill-opacity="0.0" stroke="#00D0EC" stroke-opacity="0.98" stroke-width="0.3"><path d="
M 184.00 294.00 
C 172.85 291.17 169.01 308.49 179.78 311.22 C 190.54 313.94 193.81 296.49 184.00 294.00 Z"/>
</g>
<g fill="None" fill-opacity="0.0" stroke="#00D0EC" stroke-opacity="0.98" stroke-width="0.3"><path d="
M 242.00 294.00 
C 230.85 291.17 227.01 308.49 237.78 311.22 C 248.54 313.94 251.81 296.49 242.00 294.00 Z"/>
</g>
<g fill="None" fill-opacity="0.0" stroke="#00D0EC" stroke-opacity="0.98" stroke-width="0.3"><path d="
M 300.00 294.00 
C 288.85 291.17 285.01 308.49 295.78 311.22 C 306.54 313.94 309.81 296.49 300.00 294.00 Z"/>
</g>
<g fill="None" fill-opacity="0.0" stroke="#00D0EC" stroke-opacity="0.98" stroke-width="0.3"><path d="
M 358.00 294.00 
C 346.85 291.17 343.01 308.49 353.78 311.22 C 364.54 313.94 367.81 296.49 358.00 294.00 Z"/>
</g>
<g fill="None" fill-opacity="0.0" stroke="#00D0EC" stroke-opacity="0.98" stroke-width="0.3"><path d="
M 416.00 294.00 
C 404.85 291.17 401.01 308.49 411.78 311.22 C 422.54 313.94 425.81 296.49 416.00 294.00 Z"/>
</g>
<g fill="None" fill-opacity="0.0" stroke="#00D0EC" stroke-opacity="0.98" stroke-width="0.3"><path d="
M 68.00 352.00 
C 56.85 349.17 53.01 366.49 63.78 369.22 C 74.54 371.94 77.81 354.49 68.00 352.00 Z"/>
</g>
<g fill="None" fill-opacity="0.0" stroke="#00D0EC" stroke-opacity="0.98" stroke-width="0.3"><path d="
M 126.00 352.00 
C 114.85 349.17 111.01 366.49 121.78 369.22 C 132.54 371.94 135.81 354.49 126.00 352.00 Z"/>
</g>
<g fill="None" fill-opacity="0.0" stroke="#00D0EC" stroke-opacity="0.98" stroke-width="0.3"><path d="
M 184.00 352.00 
C 172.85 349.17 169.01 366.49 179.78 369.22 C 190.54 371.94 193.81 354.49 184.00 352.00 Z"/>
</g>
<g fill="None" fill-opacity="0.0" stroke="#00D0EC" stroke-opacity="0.98" stroke-width="0.3"><path d="
M 242.00 352.00 
C 230.85 349.17 227.01 366.49 237.78 369.22 C 248.54 371.94 251.81 354.49 242.00 352.00 Z"/>
</g>
<g fill="None" fill-opacity="0.0" stroke="#00D0EC" stroke-opacity="0.98" stroke-width="0.3"><path d="
M 300.00 352.00 
C 288.85 349.17 285.01 366.49 295.78 369.22 C 306.54 371.94 309.81 354.49 300.00 352.00 Z"/>
</g>
<g fill="None" fill-opacity="0.0" stroke="#00D0EC" stroke-opacity="0.98" stroke-width="0.3"><path d="
M 358.00 352.00 
C 346.85 349.17 343.01 366.49 353.78 369.22 C 364.54 371.94 367.81 354.49 358.00 352.00 Z"/>
</g>
<g fill="None" fill-opacity="0.0" stroke="#00D0EC" stroke-opacity="0.98" stroke-width="0.3"><path d="
M 416.00 352.00 
C 404.85 349.17 401.01 366.49 411.78 369.22 C 422.54 371.94 425.81 354.49 416.00 352.00 Z"/>
</g>
<g fill="None" fill-opacity="0.0" stroke="#00D0EC" stroke-opacity="0.98" stroke-width="0.3"><path d="
M 68.00 410.00 
C 56.88 407.18 52.99 424.41 63.78 427.22 C 74.57 430.03 77.79 412.48 68.00 410.00 Z"/>
</g>
<g fill="None" fill-opacity="0.0" stroke="#00D0EC" stroke-opacity="0.98" stroke-width="0.3"><path d="
M 126.00 410.00 
C 114.88 407.18 110.99 424.41 121.78 427.22 C 132.57 430.03 135.79 412.48 126.00 410.00 Z"/>
</g>
<g fill="None" fill-opacity="0.0" stroke="#00D0EC" stroke-opacity="0.98" stroke-width="0.3"><path d="
M 184.00 410.00 
C 172.88 407.18 168.99 424.41 179.78 427.22 C 190.57 430.03 193.79 412.48 184.00 410.00 Z"/>
</g>
<g fill="None" fill-opacity="0.0" stroke="#00D0EC" stroke-opacity="0.98" stroke-width="0.3"><path d="
M 242.00 410.00 
C 230.88 407.18 226.99 424.41 237.78 427.22 C 248.57 430.03 251.79 412.48 242.00 410.00 Z"/>
</g>
<g fill="None" fill-opacity="0.0" stroke="#00D0EC" stroke-opacity="0.98" stroke-width="0.3"><path d="
M 300.00 410.00 
C 288.88 407.18 284.99 424.41 295.78 427.22 C 306.57 430.03 309.79 412.48 300.00 410.00 Z"/>
</g>
<g fill="None" fill-opacity="0.0" stroke="#00D0EC" stroke-opacity="0.98" stroke-width="0.3"><path d="
M 358.00 410.00 
C 346.88 407.18 342.99 424.41 353.78 427.22 C 364.57 430.03 367.79 412.48 358.00 410.00 Z"/>
</g>
<g fill="None" fill-opacity="0.0" stroke="#00D0EC" stroke-opacity="0.98" stroke-width="0.3"><path d="
M 416.00 410.00 
C 404.88 407.18 400.99 424.41 411.78 427.22 C 422.57 430.03 425.79 412.48 416.00 410.00 Z"/>
</g>
<g fill="#00D0EC" fill-opacity="0.00" stroke="None">
<path d="
M 0.00 491.00 
L 491.00 491.00
L 491.00 0.00
L 0.00 0.00
L 0.00 491.00
M 68.00 62.00 
C 77.79 64.48 74.57 82.03 63.78 79.22 C 52.99 76.41 56.88 59.18 68.00 62.00
M 126.00 62.00 
C 135.79 64.48 132.57 82.03 121.78 79.22 C 110.99 76.41 114.88 59.18 126.00 62.00
M 184.00 62.00 
C 193.79 64.48 190.57 82.03 179.78 79.22 C 168.99 76.41 172.88 59.18 184.00 62.00
M 242.00 62.00 
C 251.79 64.48 248.57 82.03 237.78 79.22 C 226.99 76.41 230.88 59.18 242.00 62.00
M 300.00 62.00 
C 309.79 64.48 306.57 82.03 295.78 79.22 C 284.99 76.41 288.88 59.18 300.00 62.00
M 358.00 62.00 
C 367.79 64.48 364.57 82.03 353.78 79.22 C 342.99 76.41 346.88 59.18 358.00 62.00
M 416.00 62.00 
C 425.79 64.48 422.57 82.03 411.78 79.22 C 400.99 76.41 404.88 59.18 416.00 62.00
M 68.00 120.00 
C 77.81 122.49 74.54 139.94 63.78 137.22 C 53.01 134.49 56.85 117.17 68.00 120.00
M 126.00 120.00 
C 135.81 122.49 132.55 139.94 121.78 137.22 C 111.01 134.49 114.85 117.17 126.00 120.00
M 184.00 120.00 
C 193.81 122.49 190.54 139.94 179.78 137.22 C 169.01 134.49 172.85 117.17 184.00 120.00
M 242.00 120.00 
C 251.81 122.49 248.54 139.94 237.78 137.22 C 227.01 134.49 230.85 117.17 242.00 120.00
M 300.00 120.00 
C 309.81 122.49 306.54 139.94 295.78 137.22 C 285.01 134.49 288.85 117.17 300.00 120.00
M 358.00 120.00 
C 367.81 122.49 364.54 139.94 353.78 137.22 C 343.01 134.49 346.85 117.17 358.00 120.00
M 416.00 120.00 
C 425.81 122.49 422.54 139.94 411.78 137.22 C 401.01 134.49 404.85 117.17 416.00 120.00
M 68.00 178.00 
C 77.81 180.49 74.54 197.94 63.78 195.22 C 53.01 192.49 56.85 175.17 68.00 178.00
M 126.00 178.00 
C 135.81 180.49 132.54 197.94 121.78 195.22 C 111.01 192.49 114.85 175.17 126.00 178.00
M 184.00 178.00 
C 193.81 180.49 190.54 197.94 179.78 195.22 C 169.01 192.49 172.85 175.17 184.00 178.00
M 242.00 178.00 
C 251.81 180.49 248.54 197.94 237.78 195.22 C 227.01 192.49 230.85 175.17 242.00 178.00
M 300.00 178.00 
C 309.81 180.49 306.54 197.94 295.78 195.22 C 285.01 192.49 288.85 175.17 300.00 178.00
M 358.00 178.00 
C 367.81 180.49 364.55 197.94 353.78 195.22 C 343.01 192.49 346.85 175.17 358.00 178.00
M 416.00 178.00 
C 425.81 180.49 422.54 197.94 411.78 195.22 C 401.01 192.49 404.85 175.17 416.00 178.00
M 68.00 236.00 
C 77.79 238.48 74.57 256.03 63.78 253.22 C 52.99 250.41 56.88 233.18 68.00 236.00
M 126.00 236.00 
C 135.79 238.48 132.57 256.03 121.78 253.22 C 110.99 250.41 114.88 233.18 126.00 236.00
M 184.00 236.00 
C 193.79 238.48 190.57 256.03 179.78 253.22 C 168.99 250.41 172.88 233.18 184.00 236.00
M 242.00 236.00 
C 251.79 238.48 248.57 256.03 237.78 253.22 C 226.99 250.41 230.88 233.18 242.00 236.00
M 300.00 236.00 
C 309.79 238.48 306.57 256.03 295.78 253.22 C 284.99 250.41 288.88 233.18 300.00 236.00
M 358.00 236.00 
C 367.79 238.48 364.57 256.03 353.78 253.22 C 342.99 250.41 346.88 233.18 358.00 236.00
M 416.00 236.00 
C 425.79 238.48 422.57 256.03 411.78 253.22 C 400.99 250.41 404.88 233.18 416.00 236.00
M 68.00 294.00 
C 77.81 296.49 74.54 313.94 63.78 311.22 C 53.01 308.49 56.85 291.17 68.00 294.00
M 126.00 294.00 
C 135.81 296.49 132.54 313.94 121.78 311.22 C 111.01 308.49 114.85 291.17 126.00 294.00
M 184.00 294.00 
C 193.81 296.49 190.54 313.94 179.78 311.22 C 169.01 308.49 172.85 291.17 184.00 294.00
M 242.00 294.00 
C 251.81 296.49 248.54 313.94 237.78 311.22 C 227.01 308.49 230.85 291.17 242.00 294.00
M 300.00 294.00 
C 309.81 296.49 306.54 313.94 295.78 311.22 C 285.01 308.49 288.85 291.17 300.00 294.00
M 358.00 294.00 
C 367.81 296.49 364.54 313.94 353.78 311.22 C 343.01 308.49 346.85 291.17 358.00 294.00
M 416.00 294.00 
C 425.81 296.49 422.54 313.94 411.78 311.22 C 401.01 308.49 404.85 291.17 416.00 294.00
M 68.00 352.00 
C 77.81 354.49 74.54 371.94 63.78 369.22 C 53.01 366.49 56.85 349.17 68.00 352.00
M 126.00 352.00 
C 135.81 354.49 132.54 371.94 121.78 369.22 C 111.01 366.49 114.85 349.17 126.00 352.00
M 184.00 352.00 
C 193.81 354.49 190.54 371.94 179.78 369.22 C 169.01 366.49 172.85 349.17 184.00 352.00
M 242.00 352.00 
C 251.81 354.49 248.54 371.94 237.78 369.22 C 227.01 366.49 230.85 349.17 242.00 352.00
M 300.00 352.00 
C 309.81 354.49 306.54 371.94 295.78 369.22 C 285.01 366.49 288.85 349.17 300.00 352.00
M 358.00 352.00 
C 367.81 354.49 364.54 371.94 353.78 369.22 C 343.01 366.49 346.85 349.17 358.00 352.00
M 416.00 352.00 
C 425.81 354.49 422.54 371.94 411.78 369.22 C 401.01 366.49 404.85 349.17 416.00 352.00
M 68.00 410.00 
C 77.79 412.48 74.57 430.03 63.78 427.22 C 52.99 424.41 56.88 407.18 68.00 410.00
M 126.00 410.00 
C 135.79 412.48 132.57 430.03 121.78 427.22 C 110.99 424.41 114.88 407.18 126.00 410.00
M 184.00 410.00 
C 193.79 412.48 190.57 430.03 179.78 427.22 C 168.99 424.41 172.88 407.18 184.00 410.00
M 242.00 410.00 
C 251.79 412.48 248.57 430.03 237.78 427.22 C 226.99 424.41 230.88 407.18 242.00 410.00
M 300.00 410.00 
C 309.79 412.48 306.57 430.03 295.78 427.22 C 284.99 424.41 288.88 407.18 300.00 410.00
M 358.00 410.00 
C 367.79 412.48 364.57 430.03 353.78 427.22 C 342.99 424.41 346.88 407.18 358.00 410.00
M 416.00 410.00 
C 425.79 412.48 422.57 430.03 411.78 427.22 C 400.99 424.41 404.88 407.18 416.00 410.00 Z"/>
</g>
<g fill="#00D0EC" fill-opacity="0.98" stroke="None">
<path d="
M 68.00 62.00 
C 56.88 59.18 52.99 76.41 63.78 79.22 C 74.57 82.03 77.79 64.48 68.00 62.00 Z"/>
</g>
<g fill="#00D0EC" fill-opacity="0.98" stroke="None">
<path d="
M 126.00 62.00 
C 114.88 59.18 110.99 76.41 121.78 79.22 C 132.57 82.03 135.79 64.48 126.00 62.00 Z"/>
</g>
<g fill="#00D0EC" fill-opacity="0.98" stroke="None">
<path d="
M 184.00 62.00 
C 172.88 59.18 168.99 76.41 179.78 79.22 C 190.57 82.03 193.79 64.48 184.00 62.00 Z"/>
</g>
<g fill="#00D0EC" fill-opacity="0.98" stroke="None">
<path d="
M 242.00 62.00 
C 230.88 59.18 226.99 76.41 237.78 79.22 C 248.57 82.03 251.79 64.48 242.00 62.00 Z"/>
</g>
<g fill="#00D0EC" fill-opacity="0.98" stroke="None">
<path d="
M 300.00 62.00 
C 288.88 59.18 284.99 76.41 295.78 79.22 C 306.57 82.03 309.79 64.48 300.00 62.00 Z"/>
</g>
<g fill="#00D0EC" fill-opacity="0.98" stroke="None">
<path d="
M 358.00 62.00 
C 346.88 59.18 342.99 76.41 353.78 79.22 C 364.57 82.03 367.79 64.48 358.00 62.00 Z"/>
</g>
<g fill="#00D0EC" fill-opacity="0.98" stroke="None">
<path d="
M 416.00 62.00 
C 404.88 59.18 400.99 76.41 411.78 79.22 C 422.57 82.03 425.79 64.48 416.00 62.00 Z"/>
</g>
<g fill="#00D0EC" fill-opacity="0.98" stroke="None">
<path d="
M 68.00 120.00 
C 56.85 117.17 53.01 134.49 63.78 137.22 C 74.54 139.94 77.81 122.49 68.00 120.00 Z"/>
</g>
<g fill="#00D0EC" fill-opacity="0.98" stroke="None">
<path d="
M 126.00 120.00 
C 114.85 117.17 111.01 134.49 121.78 137.22 C 132.55 139.94 135.81 122.49 126.00 120.00 Z"/>
</g>
<g fill="#00D0EC" fill-opacity="0.98" stroke="None">
<path d="
M 184.00 120.00 
C 172.85 117.17 169.01 134.49 179.78 137.22 C 190.54 139.94 193.81 122.49 184.00 120.00 Z"/>
</g>
<g fill="#00D0EC" fill-opacity="0.98" stroke="None">
<path d="
M 242.00 120.00 
C 230.85 117.17 227.01 134.49 237.78 137.22 C 248.54 139.94 251.81 122.49 242.00 120.00 Z"/>
</g>
<g fill="#00D0EC" fill-opacity="0.98" stroke="None">
<path d="
M 300.00 120.00 
C 288.85 117.17 285.01 134.49 295.78 137.22 C 306.54 139.94 309.81 122.49 300.00 120.00 Z"/>
</g>
<g fill="#00D0EC" fill-opacity="0.98" stroke="None">
<path d="
M 358.00 120.00 
C 346.85 117.17 343.01 134.49 353.78 137.22 C 364.54 139.94 367.81 122.49 358.00 120.00 Z"/>
</g>
<g fill="#00D0EC" fill-opacity="0.98" stroke="None">
<path d="
M 416.00 120.00 
C 404.85 117.17 401.01 134.49 411.78 137.22 C 422.54 139.94 425.81 122.49 416.00 120.00 Z"/>
</g>
<g fill="#00D0EC" fill-opacity="0.98" stroke="None">
<path d="
M 68.00 178.00 
C 56.85 175.17 53.01 192.49 63.78 195.22 C 74.54 197.94 77.81 180.49 68.00 178.00 Z"/>
</g>
<g fill="#00D0EC" fill-opacity="0.98" stroke="None">
<path d="
M 126.00 178.00 
C 114.85 175.17 111.01 192.49 121.78 195.22 C 132.54 197.94 135.81 180.49 126.00 178.00 Z"/>
</g>
<g fill="#00D0EC" fill-opacity="0.98" stroke="None">
<path d="
M 184.00 178.00 
C 172.85 175.17 169.01 192.49 179.78 195.22 C 190.54 197.94 193.81 180.49 184.00 178.00 Z"/>
</g>
<g fill="#00D0EC" fill-opacity="0.98" stroke="None">
<path d="
M 242.00 178.00 
C 230.85 175.17 227.01 192.49 237.78 195.22 C 248.54 197.94 251.81 180.49 242.00 178.00 Z"/>
</g>
<g fill="#00D0EC" fill-opacity="0.98" stroke="None">
<path d="
M 300.00 178.00 
C 288.85 175.17 285.01 192.49 295.78 195.22 C 306.54 197.94 309.81 180.49 300.00 178.00 Z"/>
</g>
<g fill="#00D0EC" fill-opacity="0.98" stroke="None">
<path d="
M 358.00 178.00 
C 346.85 175.17 343.01 192.49 353.78 195.22 C 364.55 197.94 367.81 180.49 358.00 178.00 Z"/>
</g>
<g fill="#00D0EC" fill-opacity="0.98" stroke="None">
<path d="
M 416.00 178.00 
C 404.85 175.17 401.01 192.49 411.78 195.22 C 422.54 197.94 425.81 180.49 416.00 178.00 Z"/>
</g>
<g fill="#00D0EC" fill-opacity="0.98" stroke="None">
<path d="
M 68.00 236.00 
C 56.88 233.18 52.99 250.41 63.78 253.22 C 74.57 256.03 77.79 238.48 68.00 236.00 Z"/>
</g>
<g fill="#00D0EC" fill-opacity="0.98" stroke="None">
<path d="
M 126.00 236.00 
C 114.88 233.18 110.99 250.41 121.78 253.22 C 132.57 256.03 135.79 238.48 126.00 236.00 Z"/>
</g>
<g fill="#00D0EC" fill-opacity="0.98" stroke="None">
<path d="
M 184.00 236.00 
C 172.88 233.18 168.99 250.41 179.78 253.22 C 190.57 256.03 193.79 238.48 184.00 236.00 Z"/>
</g>
<g fill="#00D0EC" fill-opacity="0.98" stroke="None">
<path d="
M 242.00 236.00 
C 230.88 233.18 226.99 250.41 237.78 253.22 C 248.57 256.03 251.79 238.48 242.00 236.00 Z"/>
</g>
<g fill="#00D0EC" fill-opacity="0.98" stroke="None">
<path d="
M 300.00 236.00 
C 288.88 233.18 284.99 250.41 295.78 253.22 C 306.57 256.03 309.79 238.48 300.00 236.00 Z"/>
</g>
<g fill="#00D0EC" fill-opacity="0.98" stroke="None">
<path d="
M 358.00 236.00 
C 346.88 233.18 342.99 250.41 353.78 253.22 C 364.57 256.03 367.79 238.48 358.00 236.00 Z"/>
</g>
<g fill="#00D0EC" fill-opacity="0.98" stroke="None">
<path d="
M 416.00 236.00 
C 404.88 233.18 400.99 250.41 411.78 253.22 C 422.57 256.03 425.79 238.48 416.00 236.00 Z"/>
</g>
<g fill="#00D0EC" fill-opacity="0.98" stroke="None">
<path d="
M 68.00 294.00 
C 56.85 291.17 53.01 308.49 63.78 311.22 C 74.54 313.94 77.81 296.49 68.00 294.00 Z"/>
</g>
<g fill="#00D0EC" fill-opacity="0.98" stroke="None">
<path d="
M 126.00 294.00 
C 114.85 291.17 111.01 308.49 121.78 311.22 C 132.54 313.94 135.81 296.49 126.00 294.00 Z"/>
</g>
<g fill="#00D0EC" fill-opacity="0.98" stroke="None">
<path d="
M 184.00 294.00 
C 172.85 291.17 169.01 308.49 179.78 311.22 C 190.54 313.94 193.81 296.49 184.00 294.00 Z"/>
</g>
<g fill="#00D0EC" fill-opacity="0.98" stroke="None">
<path d="
M 242.00 294.00 
C 230.85 291.17 227.01 308.49 237.78 311.22 C 248.54 313.94 251.81 296.49 242.00 294.00 Z"/>
</g>
<g fill="#00D0EC" fill-opacity="0.98" stroke="None">
<path d="
M 300.00 294.00 
C 288.85 291.17 285.01 308.49 295.78 311.22 C 306.54 313.94 309.81 296.49 300.00 294.00 Z"/>
</g>
<g fill="#00D0EC" fill-opacity="0.98" stroke="None">
<path d="
M 358.00 294.00 
C 346.85 291.17 343.01 308.49 353.78 311.22 C 364.54 313.94 367.81 296.49 358.00 294.00 Z"/>
</g>
<g fill="#00D0EC" fill-opacity="0.98" stroke="None">
<path d="
M 416.00 294.00 
C 404.85 291.17 401.01 308.49 411.78 311.22 C 422.54 313.94 425.81 296.49 416.00 294.00 Z"/>
</g>
<g fill="#00D0EC" fill-opacity="0.98" stroke="None">
<path d="
M 68.00 352.00 
C 56.85 349.17 53.01 366.49 63.78 369.22 C 74.54 371.94 77.81 354.49 68.00 352.00 Z"/>
</g>
<g fill="#00D0EC" fill-opacity="0.98" stroke="None">
<path d="
M 126.00 352.00 
C 114.85 349.17 111.01 366.49 121.78 369.22 C 132.54 371.94 135.81 354.49 126.00 352.00 Z"/>
</g>
<g fill="#00D0EC" fill-opacity="0.98" stroke="None">
<path d="
M 184.00 352.00 
C 172.85 349.17 169.01 366.49 179.78 369.22 C 190.54 371.94 193.81 354.49 184.00 352.00 Z"/>
</g>
<g fill="#00D0EC" fill-opacity="0.98" stroke="None">
<path d="
M 242.00 352.00 
C 230.85 349.17 227.01 366.49 237.78 369.22 C 248.54 371.94 251.81 354.49 242.00 352.00 Z"/>
</g>
<g fill="#00D0EC" fill-opacity="0.98" stroke="None">
<path d="
M 300.00 352.00 
C 288.85 349.17 285.01 366.49 295.78 369.22 C 306.54 371.94 309.81 354.49 300.00 352.00 Z"/>
</g>
<g fill="#00D0EC" fill-opacity="0.98" stroke="None">
<path d="
M 358.00 352.00 
C 346.85 349.17 343.01 366.49 353.78 369.22 C 364.54 371.94 367.81 354.49 358.00 352.00 Z"/>
</g>
<g fill="#00D0EC" fill-opacity="0.98" stroke="None">
<path d="
M 416.00 352.00 
C 404.85 349.17 401.01 366.49 411.78 369.22 C 422.54 371.94 425.81 354.49 416.00 352.00 Z"/>
</g>
<g fill="#00D0EC" fill-opacity="0.98" stroke="None">
<path d="
M 68.00 410.00 
C 56.88 407.18 52.99 424.41 63.78 427.22 C 74.57 430.03 77.79 412.48 68.00 410.00 Z"/>
</g>
<g fill="#00D0EC" fill-opacity="0.98" stroke="None">
<path d="
M 126.00 410.00 
C 114.88 407.18 110.99 424.41 121.78 427.22 C 132.57 430.03 135.79 412.48 126.00 410.00 Z"/>
</g>
<g fill="#00D0EC" fill-opacity="0.98" stroke="None">
<path d="
M 184.00 410.00 
C 172.88 407.18 168.99 424.41 179.78 427.22 C 190.57 430.03 193.79 412.48 184.00 410.00 Z"/>
</g>
<g fill="#00D0EC" fill-opacity="0.98" stroke="None">
<path d="
M 242.00 410.00 
C 230.88 407.18 226.99 424.41 237.78 427.22 C 248.57 430.03 251.79 412.48 242.00 410.00 Z"/>
</g>
<g fill="#00D0EC" fill-opacity="0.98" stroke="None">
<path d="
M 300.00 410.00 
C 288.88 407.18 284.99 424.41 295.78 427.22 C 306.57 430.03 309.79 412.48 300.00 410.00 Z"/>
</g>
<g fill="#00D0EC" fill-opacity="0.98" stroke="None">
<path d="
M 358.00 410.00 
C 346.88 407.18 342.99 424.41 353.78 427.22 C 364.57 430.03 367.79 412.48 358.00 410.00 Z"/>
</g>
<g fill="#00D0EC" fill-opacity="0.98" stroke="None">
<path d="
M 416.00 410.00 
C 404.88 407.18 400.99 424.41 411.78 427.22 C 422.57 430.03 425.79 412.48 416.00 410.00 Z"/>
</g>
</svg>