<svg xmlns="http://www.w3.org/2000/svg" xmlns:v="https://svgstorm.com"
viewBox = "0 0 320 700"
width="320"
height="700">
<g fill="None" fill-opacity="0.0" stroke="#000000" stroke-opacity="0.00" stroke-width="0.3"><path d="
M 0.00 457.00 
C 6.44 407.85 49.62 378.33 87.70 351.70 C 125.77 325.07 162.42 288.44 168.98 239.98 C 175.53 191.51 176.78 126.51 208.25 86.25 C 239.73 46.00 273.20 20.56 320.00 5.00
L 320.00 0.00
L 0.00 0.00
L 0.00 457.00 Z"/>
</g>
<g fill="None" fill-opacity="0.0" stroke="#22D3EE" stroke-opacity="1.00" stroke-width="0.3"><path d="
M 0.00 457.00 
L 0.00 502.00
C 6.22 531.78 18.40 560.72 42.75 582.25 C 67.11 603.78 96.69 616.57 130.00 618.00 C 163.31 619.43 209.64 609.71 242.07 618.93 C 274.51 628.14 295.65 640.89 320.00 664.00
L 320.00 660.00
C 284.59 626.62 235.13 603.28 185.00 612.00 C 134.87 620.72 79.74 613.29 42.30 577.70 C 4.87 542.10 -6.01 484.88 8.92 437.92 C 23.86 390.97 66.15 374.01 101.25 345.25 C 136.34 316.48 170.15 280.53 173.78 232.78 C 177.41 185.03 181.90 124.93 212.25 86.25 C 242.61 47.58 275.25 23.75 320.00 8.00
L 320.00 5.00
C 273.20 20.56 239.73 46.00 208.25 86.25 C 176.78 126.51 175.53 191.51 168.98 239.98 C 162.42 288.44 125.77 325.07 87.70 351.70 C 49.62 378.33 6.44 407.85 0.00 457.00 Z"/>
</g>
<g fill="None" fill-opacity="0.0" stroke="#000000" stroke-opacity="0.00" stroke-width="0.3"><path d="
M 320.00 660.00 
L 320.00 560.00
C 284.45 553.66 241.54 545.39 205.00 549.00 C 168.46 552.61 125.87 560.14 94.30 541.70 C 62.73 523.25 54.28 481.91 72.75 453.75 C 91.23 425.59 118.92 416.04 146.08 399.08 C 173.24 382.11 196.67 370.66 218.30 343.30 C 239.94 315.95 242.08 272.10 237.22 236.78 C 232.36 201.45 235.28 155.04 250.77 124.77 C 266.26 94.50 291.19 78.67 320.00 65.00
L 320.00 8.00
C 275.25 23.75 242.61 47.58 212.25 86.25 C 181.90 124.93 177.41 185.03 173.78 232.78 C 170.15 280.53 136.34 316.48 101.25 345.25 C 66.15 374.01 23.86 390.97 8.92 437.92 C -6.01 484.88 4.87 542.10 42.30 577.70 C 79.74 613.29 134.87 620.72 185.00 612.00 C 235.13 603.28 284.59 626.62 320.00 660.00 Z"/>
</g>
<g fill="None" fill-opacity="0.0" stroke="#22D3EE" stroke-opacity="1.00" stroke-width="0.3"><path d="
M 320.00 560.00 
L 320.00 557.00
C 284.89 550.60 243.16 542.60 207.00 546.00 C 170.84 549.40 128.02 556.84 96.75 539.25 C 65.48 521.65 56.91 480.29 76.30 453.30 C 95.70 426.32 123.50 416.97 150.08 400.08 C 176.67 383.19 200.01 371.96 220.92 344.92 C 241.82 317.87 245.72 275.02 241.00 240.00 C 236.28 204.98 237.29 158.82 252.31 128.31 C 267.32 97.79 291.05 82.19 320.00 69.00
L 320.00 65.00
C 291.19 78.67 266.26 94.50 250.77 124.77 C 235.28 155.04 232.36 201.45 237.22 236.78 C 242.08 272.10 239.94 315.95 218.30 343.30 C 196.67 370.66 173.24 382.11 146.08 399.08 C 118.92 416.04 91.23 425.59 72.75 453.75 C 54.28 481.91 62.73 523.25 94.30 541.70 C 125.87 560.14 168.46 552.61 205.00 549.00 C 241.54 545.39 284.45 553.66 320.00 560.00 Z"/>
</g>
<g fill="None" fill-opacity="0.0" stroke="#000000" stroke-opacity="0.00" stroke-width="0.3"><path d="
M 320.00 557.00 
L 320.00 533.00
C 295.19 534.66 255.01 530.65 247.68 502.32 C 240.35 474.00 256.93 447.84 268.77 423.77 C 280.61 399.70 297.97 375.59 293.00 347.00 C 288.04 318.41 275.32 296.88 267.67 269.33 C 260.02 241.77 262.46 203.51 268.78 176.78 C 275.10 150.04 290.99 125.79 320.00 124.00
L 320.00 69.00
C 291.05 82.19 267.32 97.79 252.31 128.31 C 237.29 158.82 236.28 204.98 241.00 240.00 C 245.72 275.02 241.82 317.87 220.92 344.92 C 200.01 371.96 176.67 383.19 150.08 400.08 C 123.50 416.97 95.70 426.32 76.30 453.30 C 56.91 480.29 65.48 521.65 96.75 539.25 C 128.02 556.84 170.84 549.40 207.00 546.00 C 243.16 542.60 284.89 550.60 320.00 557.00
M 165.00 445.00 
C 183.75 447.27 212.32 463.08 203.22 486.22 C 194.13 509.37 165.99 510.34 145.93 510.07 C 125.86 509.81 97.48 491.44 106.32 469.32 C 115.17 447.20 144.40 442.51 165.00 445.00 Z"/>
</g>
<g fill="None" fill-opacity="0.0" stroke="#22D3EE" stroke-opacity="1.00" stroke-width="0.3"><path d="
M 320.00 533.00 
L 320.00 531.00
C 297.39 530.98 254.99 527.98 250.02 499.98 C 245.06 471.97 259.51 446.84 272.31 423.31 C 285.10 399.77 299.70 375.42 295.22 346.78 C 290.74 318.13 279.00 297.28 270.68 270.32 C 262.35 243.37 265.79 205.42 270.99 178.99 C 276.20 152.56 293.21 130.41 320.00 126.00
L 320.00 124.00
C 290.99 125.79 275.10 150.04 268.78 176.78 C 262.46 203.51 260.02 241.77 267.67 269.33 C 275.32 296.88 288.04 318.41 293.00 347.00 C 297.97 375.59 280.61 399.70 268.77 423.77 C 256.93 447.84 240.35 474.00 247.68 502.32 C 255.01 530.65 295.19 534.66 320.00 533.00 Z"/>
</g>
<g fill="None" fill-opacity="0.0" stroke="#000000" stroke-opacity="0.00" stroke-width="0.3"><path d="
M 320.00 531.00 
L 320.00 126.00
C 293.21 130.41 276.20 152.56 270.99 178.99 C 265.79 205.42 262.35 243.37 270.68 270.32 C 279.00 297.28 290.74 318.13 295.22 346.78 C 299.70 375.42 285.10 399.77 272.31 423.31 C 259.51 446.84 245.06 471.97 250.02 499.98 C 254.99 527.98 297.39 530.98 320.00 531.00 Z"/>
</g>
<g fill="None" fill-opacity="0.0" stroke="#22D3EE" stroke-opacity="1.00" stroke-width="0.3"><path d="
M 165.00 445.00 
C 144.40 442.51 115.17 447.20 106.32 469.32 C 97.48 491.44 125.86 509.81 145.93 510.07 C 165.99 510.34 194.13 509.37 203.22 486.22 C 212.32 463.08 183.75 447.27 165.00 445.00
M 165.00 448.00 
C 181.82 450.03 209.43 465.05 200.22 486.22 C 191.02 507.39 164.11 506.94 145.93 507.07 C 127.74 507.21 100.34 489.27 109.32 469.32 C 118.31 449.38 146.08 445.71 165.00 448.00 Z"/>
</g>
<g fill="None" fill-opacity="0.0" stroke="#000000" stroke-opacity="0.00" stroke-width="0.3"><path d="
M 165.00 448.00 
C 146.08 445.71 118.31 449.38 109.32 469.32 C 100.34 489.27 127.74 507.21 145.93 507.07 C 164.11 506.94 191.02 507.39 200.22 486.22 C 209.43 465.05 181.82 450.03 165.00 448.00 Z"/>
</g>
<g fill="None" fill-opacity="0.0" stroke="#000000" stroke-opacity="0.00" stroke-width="0.3"><path d="
M 0.00 700.00 
L 320.00 700.00
L 320.00 664.00
C 295.65 640.89 274.51 628.14 242.07 618.93 C 209.64 609.71 163.31 619.43 130.00 618.00 C 96.69 616.57 67.11 603.78 42.75 582.25 C 18.40 560.72 6.22 531.78 0.00 502.00
L 0.00 700.00 Z"/>
</g>
<g fill="#000000" fill-opacity="0.00" stroke="None">
<path d="
M 0.00 457.00 
C 6.44 407.85 49.62 378.33 87.70 351.70 C 125.77 325.07 162.42 288.44 168.98 239.98 C 175.53 191.51 176.78 126.51 208.25 86.25 C 239.73 46.00 273.20 20.56 320.00 5.00
L 320.00 0.00
L 0.00 0.00
L 0.00 457.00 Z"/>
</g>
<g fill="#22D3EE" fill-opacity="1.00" stroke="None">
<path d="
M 0.00 457.00 
L 0.00 502.00
C 6.22 531.78 18.40 560.72 42.75 582.25 C 67.11 603.78 96.69 616.57 130.00 618.00 C 163.31 619.43 209.64 609.71 242.07 618.93 C 274.51 628.14 295.65 640.89 320.00 664.00
L 320.00 660.00
C 284.59 626.62 235.13 603.28 185.00 612.00 C 134.87 620.72 79.74 613.29 42.30 577.70 C 4.87 542.10 -6.01 484.88 8.92 437.92 C 23.86 390.97 66.15 374.01 101.25 345.25 C 136.34 316.48 170.15 280.53 173.78 232.78 C 177.41 185.03 181.90 124.93 212.25 86.25 C 242.61 47.58 275.25 23.75 320.00 8.00
L 320.00 5.00
C 273.20 20.56 239.73 46.00 208.25 86.25 C 176.78 126.51 175.53 191.51 168.98 239.98 C 162.42 288.44 125.77 325.07 87.70 351.70 C 49.62 378.33 6.44 407.85 0.00 457.00 Z"/>
</g>
<g fill="#000000" fill-opacity="0.00" stroke="None">
<path d="
M 320.00 660.00 
L 320.00 560.00
C 284.45 553.66 241.54 545.39 205.00 549.00 C 168.46 552.61 125.87 560.14 94.30 541.70 C 62.73 523.25 54.28 481.91 72.75 453.75 C 91.23 425.59 118.92 416.04 146.08 399.08 C 173.24 382.11 196.67 370.66 218.30 343.30 C 239.94 315.95 242.08 272.10 237.22 236.78 C 232.36 201.45 235.28 155.04 250.77 124.77 C 266.26 94.50 291.19 78.67 320.00 65.00
L 320.00 8.00
C 275.25 23.75 242.61 47.58 212.25 86.25 C 181.90 124.93 177.41 185.03 173.78 232.78 C 170.15 280.53 136.34 316.48 101.25 345.25 C 66.15 374.01 23.86 390.97 8.92 437.92 C -6.01 484.88 4.87 542.10 42.30 577.70 C 79.74 613.29 134.87 620.72 185.00 612.00 C 235.13 603.28 284.59 626.62 320.00 660.00 Z"/>
</g>
<g fill="#22D3EE" fill-opacity="1.00" stroke="None">
<path d="
M 320.00 560.00 
L 320.00 557.00
C 284.89 550.60 243.16 542.60 207.00 546.00 C 170.84 549.40 128.02 556.84 96.75 539.25 C 65.48 521.65 56.91 480.29 76.30 453.30 C 95.70 426.32 123.50 416.97 150.08 400.08 C 176.67 383.19 200.01 371.96 220.92 344.92 C 241.82 317.87 245.72 275.02 241.00 240.00 C 236.28 204.98 237.29 158.82 252.31 128.31 C 267.32 97.79 291.05 82.19 320.00 69.00
L 320.00 65.00
C 291.19 78.67 266.26 94.50 250.77 124.77 C 235.28 155.04 232.36 201.45 237.22 236.78 C 242.08 272.10 239.94 315.95 218.30 343.30 C 196.67 370.66 173.24 382.11 146.08 399.08 C 118.92 416.04 91.23 425.59 72.75 453.75 C 54.28 481.91 62.73 523.25 94.30 541.70 C 125.87 560.14 168.46 552.61 205.00 549.00 C 241.54 545.39 284.45 553.66 320.00 560.00 Z"/>
</g>
<g fill="#000000" fill-opacity="0.00" stroke="None">
<path d="
M 320.00 557.00 
L 320.00 533.00
C 295.19 534.66 255.01 530.65 247.68 502.32 C 240.35 474.00 256.93 447.84 268.77 423.77 C 280.61 399.70 297.97 375.59 293.00 347.00 C 288.04 318.41 275.32 296.88 267.67 269.33 C 260.02 241.77 262.46 203.51 268.78 176.78 C 275.10 150.04 290.99 125.79 320.00 124.00
L 320.00 69.00
C 291.05 82.19 267.32 97.79 252.31 128.31 C 237.29 158.82 236.28 204.98 241.00 240.00 C 245.72 275.02 241.82 317.87 220.92 344.92 C 200.01 371.96 176.67 383.19 150.08 400.08 C 123.50 416.97 95.70 426.32 76.30 453.30 C 56.91 480.29 65.48 521.65 96.75 539.25 C 128.02 556.84 170.84 549.40 207.00 546.00 C 243.16 542.60 284.89 550.60 320.00 557.00
M 165.00 445.00 
C 183.75 447.27 212.32 463.08 203.22 486.22 C 194.13 509.37 165.99 510.34 145.93 510.07 C 125.86 509.81 97.48 491.44 106.32 469.32 C 115.17 447.20 144.40 442.51 165.00 445.00 Z"/>
</g>
<g fill="#22D3EE" fill-opacity="1.00" stroke="None">
<path d="
M 320.00 533.00 
L 320.00 531.00
C 297.39 530.98 254.99 527.98 250.02 499.98 C 245.06 471.97 259.51 446.84 272.31 423.31 C 285.10 399.77 299.70 375.42 295.22 346.78 C 290.74 318.13 279.00 297.28 270.68 270.32 C 262.35 243.37 265.79 205.42 270.99 178.99 C 276.20 152.56 293.21 130.41 320.00 126.00
L 320.00 124.00
C 290.99 125.79 275.10 150.04 268.78 176.78 C 262.46 203.51 260.02 241.77 267.67 269.33 C 275.32 296.88 288.04 318.41 293.00 347.00 C 297.97 375.59 280.61 399.70 268.77 423.77 C 256.93 447.84 240.35 474.00 247.68 502.32 C 255.01 530.65 295.19 534.66 320.00 533.00 Z"/>
</g>
<g fill="#000000" fill-opacity="0.00" stroke="None">
<path d="
M 320.00 531.00 
L 320.00 126.00
C 293.21 130.41 276.20 152.56 270.99 178.99 C 265.79 205.42 262.35 243.37 270.68 270.32 C 279.00 297.28 290.74 318.13 295.22 346.78 C 299.70 375.42 285.10 399.77 272.31 423.31 C 259.51 446.84 245.06 471.97 250.02 499.98 C 254.99 527.98 297.39 530.98 320.00 531.00 Z"/>
</g>
<g fill="#22D3EE" fill-opacity="1.00" stroke="None">
<path d="
M 165.00 445.00 
C 144.40 442.51 115.17 447.20 106.32 469.32 C 97.48 491.44 125.86 509.81 145.93 510.07 C 165.99 510.34 194.13 509.37 203.22 486.22 C 212.32 463.08 183.75 447.27 165.00 445.00
M 165.00 448.00 
C 181.82 450.03 209.43 465.05 200.22 486.22 C 191.02 507.39 164.11 506.94 145.93 507.07 C 127.74 507.21 100.34 489.27 109.32 469.32 C 118.31 449.38 146.08 445.71 165.00 448.00 Z"/>
</g>
<g fill="#000000" fill-opacity="0.00" stroke="None">
<path d="
M 165.00 448.00 
C 146.08 445.71 118.31 449.38 109.32 469.32 C 100.34 489.27 127.74 507.21 145.93 507.07 C 164.11 506.94 191.02 507.39 200.22 486.22 C 209.43 465.05 181.82 450.03 165.00 448.00 Z"/>
</g>
<g fill="#000000" fill-opacity="0.00" stroke="None">
<path d="
M 0.00 700.00 
L 320.00 700.00
L 320.00 664.00
C 295.65 640.89 274.51 628.14 242.07 618.93 C 209.64 609.71 163.31 619.43 130.00 618.00 C 96.69 616.57 67.11 603.78 42.75 582.25 C 18.40 560.72 6.22 531.78 0.00 502.00
L 0.00 700.00 Z"/>
</g>
</svg>