<?xml version="1.0" encoding="UTF-8"?>
<!DOCTYPE svg PUBLIC "-//W3C//DTD SVG 1.1//EN" "http://www.w3.org/Graphics/SVG/1.1/DTD/svg11.dtd">
<svg xmlns="http://www.w3.org/2000/svg" version="1.1" width="410px" height="410px" style="shape-rendering:geometricPrecision; text-rendering:geometricPrecision; image-rendering:optimizeQuality; fill-rule:evenodd; clip-rule:evenodd" xmlns:xlink="http://www.w3.org/1999/xlink">
<g><path style="opacity:0.999" fill="#fdfdfd" d="M 148.5,124.5 C 147.089,122.086 145.089,120.419 142.5,119.5C 118.38,103.98 92.3801,99.8137 64.5,107C 61.0221,108.24 57.6887,109.74 54.5,111.5C 50.8333,113.167 48.1667,115.833 46.5,119.5C 41.0698,130.015 40.0698,141.015 43.5,152.5C 43.427,154.027 44.0937,155.027 45.5,155.5C 46.5,158.5 48.5,160.5 51.5,161.5C 67.8515,168.951 84.8515,174.617 102.5,178.5C 104.838,180.04 107.505,180.706 110.5,180.5C 117.274,181.437 123.607,183.437 129.5,186.5C 130.551,187.222 131.218,188.222 131.5,189.5C 127.784,197.931 123.284,205.931 118,213.5C 100.802,207.49 83.3015,202.323 65.5,198C 57.7924,195.825 50.4591,192.992 43.5,189.5C 40.4846,187.326 37.1513,185.659 33.5,184.5C 31.9731,184.573 30.9731,183.906 30.5,182.5C 29.4154,180.413 27.7488,179.08 25.5,178.5C 24.1667,177.833 23.1667,176.833 22.5,175.5C 21.2141,172.883 19.5475,170.55 17.5,168.5C 14.3074,164.106 12.4741,159.106 12,153.5C 9.58747,136.56 12.9208,120.893 22,106.5C 23.0391,105.29 24.2058,104.29 25.5,103.5C 27.8333,101.833 29.8333,99.8333 31.5,97.5C 41.6955,88.237 53.6955,82.4036 67.5,80C 102.777,73.385 134.61,80.885 163,102.5C 159.258,110.639 154.925,118.639 150,126.5C 149.283,125.956 148.783,125.289 148.5,124.5 Z"/></g>
<g><path style="opacity:0.945" fill="#dadada" d="M 180.5,81.5 C 185.015,80.1876 189.682,80.1876 194.5,81.5C 194.376,82.1067 194.043,82.44 193.5,82.5C 189.366,81.5151 185.032,81.1818 180.5,81.5 Z"/></g>
<g><path style="opacity:0.966" fill="#fbfbfb" d="M 180.5,81.5 C 185.032,81.1818 189.366,81.5151 193.5,82.5C 189.61,89.9411 185.444,97.2745 181,104.5C 180.308,103.975 179.808,103.308 179.5,102.5C 180.116,95.1281 180.449,88.1281 180.5,81.5 Z"/></g>
<g><path style="opacity:0.992" fill="#e7e7e7" d="M 210.5,81.5 C 209.167,82.8333 207.833,84.1667 206.5,85.5C 206.709,84.0783 207.209,82.745 208,81.5C 208.977,80.2264 209.811,80.2264 210.5,81.5 Z"/></g>
<g><path style="opacity:1" fill="#fdfdfd" d="M 210.5,81.5 C 216.257,90.0086 221.257,99.0086 225.5,108.5C 226.079,111.331 227.412,113.664 229.5,115.5C 230.338,115.842 230.672,116.508 230.5,117.5C 231.079,120.331 232.412,122.664 234.5,124.5C 239.503,132.201 244.169,140.201 248.5,148.5C 243.419,157.665 238.085,166.665 232.5,175.5C 224.161,162.159 216.328,148.493 209,134.5C 208.667,162.5 208.333,190.5 208,218.5C 199.253,234.33 190.253,249.996 181,265.5C 180.333,219.833 180.333,174.167 181,128.5C 184.024,122.434 187.524,116.768 191.5,111.5C 193.588,109.664 194.921,107.331 195.5,104.5C 198.412,97.6678 202.079,91.3344 206.5,85.5C 207.833,84.1667 209.167,82.8333 210.5,81.5 Z"/></g>
<g><path style="opacity:1" fill="#fefefe" d="M 369.5,81.5 C 379.167,81.5 388.833,81.5 398.5,81.5C 398.5,154.5 398.5,227.5 398.5,300.5C 389.5,300.5 380.5,300.5 371.5,300.5C 371.667,244.499 371.5,188.499 371,132.5C 369.295,134.577 368.128,136.91 367.5,139.5C 363.257,148.991 358.257,157.991 352.5,166.5C 350.412,168.336 349.079,170.669 348.5,173.5C 332.612,202.94 316.445,232.273 300,261.5C 293.582,262.643 287.082,262.81 280.5,262C 266.573,237.478 252.906,212.812 239.5,188C 244.141,179.206 249.141,170.706 254.5,162.5C 255.593,164.349 256.926,166.016 258.5,167.5C 259.338,167.842 259.672,168.508 259.5,169.5C 260.079,172.331 261.412,174.664 263.5,176.5C 264.338,176.842 264.672,177.508 264.5,178.5C 265.079,181.331 266.412,183.664 268.5,185.5C 274.257,194.009 279.257,203.009 283.5,212.5C 284.079,215.331 285.412,217.664 287.5,219.5C 288.338,219.842 288.672,220.508 288.5,221.5C 288.461,222.756 288.961,223.756 290,224.5C 291.372,223.09 292.205,221.423 292.5,219.5C 293.742,215.345 295.742,211.678 298.5,208.5C 300.588,206.664 301.921,204.331 302.5,201.5C 305.33,195.17 308.663,189.17 312.5,183.5C 314.588,181.664 315.921,179.331 316.5,176.5C 319.33,170.17 322.663,164.17 326.5,158.5C 328.588,156.664 329.921,154.331 330.5,151.5C 333.33,145.17 336.663,139.17 340.5,133.5C 342.588,131.664 343.921,129.331 344.5,126.5C 347.33,120.17 350.663,114.17 354.5,108.5C 356.588,106.664 357.921,104.331 358.5,101.5C 361.663,94.5044 365.329,87.8377 369.5,81.5 Z"/></g>
<g><path style="opacity:0.972" fill="#dfdfdf" d="M 369.5,81.5 C 379.319,80.506 389.319,80.1726 399.5,80.5C 399.5,154.167 399.5,227.833 399.5,301.5C 390.167,301.5 380.833,301.5 371.5,301.5C 371.5,301.167 371.5,300.833 371.5,300.5C 380.5,300.5 389.5,300.5 398.5,300.5C 398.5,227.5 398.5,154.5 398.5,81.5C 388.833,81.5 379.167,81.5 369.5,81.5 Z"/></g>
<g><path style="opacity:0.922" fill="#e4e4e4" d="M 31.5,97.5 C 29.8333,99.8333 27.8333,101.833 25.5,103.5C 26.5,100.5 28.5,98.5 31.5,97.5 Z"/></g>
<g><path style="opacity:1" fill="#eaeaea" d="M 358.5,101.5 C 357.921,104.331 356.588,106.664 354.5,108.5C 355.079,105.669 356.412,103.336 358.5,101.5 Z"/></g>
<g><path style="opacity:0.7" fill="#e8e8e8" d="M 225.5,108.5 C 227.588,110.336 228.921,112.669 229.5,115.5C 227.412,113.664 226.079,111.331 225.5,108.5 Z"/></g>
<g><path style="opacity:1" fill="#e9e9e9" d="M 195.5,104.5 C 194.921,107.331 193.588,109.664 191.5,111.5C 192.079,108.669 193.412,106.336 195.5,104.5 Z"/></g>
<g><path style="opacity:0.188" fill="#eaeaea" d="M 54.5,111.5 C 52.1667,114.5 49.5,117.167 46.5,119.5C 48.1667,115.833 50.8333,113.167 54.5,111.5 Z"/></g>
<g><path style="opacity:0.725" fill="#e8e8e8" d="M 230.5,117.5 C 232.588,119.336 233.921,121.669 234.5,124.5C 232.412,122.664 231.079,120.331 230.5,117.5 Z"/></g>
<g><path style="opacity:1" fill="#eaeaea" d="M 142.5,119.5 C 145.089,120.419 147.089,122.086 148.5,124.5C 145.911,123.581 143.911,121.914 142.5,119.5 Z"/></g>
<g><path style="opacity:0.596" fill="#eaeaea" d="M 344.5,126.5 C 343.921,129.331 342.588,131.664 340.5,133.5C 341.079,130.669 342.412,128.336 344.5,126.5 Z"/></g>
<g><path style="opacity:0.313" fill="#e9e9e9" d="M 371.5,300.5 C 371.5,300.833 371.5,301.167 371.5,301.5C 370.667,246.668 370.167,191.668 370,136.5C 369.623,137.942 368.79,138.942 367.5,139.5C 368.128,136.91 369.295,134.577 371,132.5C 371.5,188.499 371.667,244.499 371.5,300.5 Z"/></g>
<g><path style="opacity:0.945" fill="#e3e3e3" d="M 43.5,152.5 C 44.9063,152.973 45.573,153.973 45.5,155.5C 44.0937,155.027 43.427,154.027 43.5,152.5 Z"/></g>
<g><path style="opacity:0.663" fill="#eaeaea" d="M 45.5,155.5 C 47.8333,157.167 49.8333,159.167 51.5,161.5C 48.5,160.5 46.5,158.5 45.5,155.5 Z"/></g>
<g><path style="opacity:0.596" fill="#eaeaea" d="M 330.5,151.5 C 329.921,154.331 328.588,156.664 326.5,158.5C 327.079,155.669 328.412,153.336 330.5,151.5 Z"/></g>
<g><path style="opacity:0.773" fill="#e8e8e8" d="M 258.5,167.5 C 256.926,166.016 255.593,164.349 254.5,162.5C 254.393,160.621 254.893,160.288 256,161.5C 257.122,163.407 257.955,165.407 258.5,167.5 Z"/></g>
<g><path style="opacity:0.578" fill="#eaeaea" d="M 17.5,168.5 C 19.5475,170.55 21.2141,172.883 22.5,175.5C 19.6769,174.008 18.0102,171.674 17.5,168.5 Z"/></g>
<g><path style="opacity:0.725" fill="#e8e8e8" d="M 259.5,169.5 C 261.588,171.336 262.921,173.669 263.5,176.5C 261.412,174.664 260.079,172.331 259.5,169.5 Z"/></g>
<g><path style="opacity:0.698" fill="#e8e8e8" d="M 352.5,166.5 C 351.921,169.331 350.588,171.664 348.5,173.5C 349.079,170.669 350.412,168.336 352.5,166.5 Z"/></g>
<g><path style="opacity:0.973" fill="#e7e7e7" d="M 316.5,176.5 C 315.921,179.331 314.588,181.664 312.5,183.5C 313.079,180.669 314.412,178.336 316.5,176.5 Z"/></g>
<g><path style="opacity:0.647" fill="#eaeaea" d="M 25.5,178.5 C 27.7488,179.08 29.4154,180.413 30.5,182.5C 28.2512,181.92 26.5846,180.587 25.5,178.5 Z"/></g>
<g><path style="opacity:1" fill="#e8e8e8" d="M 102.5,178.5 C 105.428,178.565 108.095,179.232 110.5,180.5C 107.505,180.706 104.838,180.04 102.5,178.5 Z"/></g>
<g><path style="opacity:0.98" fill="#e8e8e8" d="M 264.5,178.5 C 266.588,180.336 267.921,182.669 268.5,185.5C 266.412,183.664 265.079,181.331 264.5,178.5 Z"/></g>
<g><path style="opacity:0.992" fill="#eaeaea" d="M 33.5,184.5 C 37.1513,185.659 40.4846,187.326 43.5,189.5C 39.5799,188.873 36.2466,187.207 33.5,184.5 Z"/></g>
<g><path style="opacity:0.98" fill="#e2e2e2" d="M 129.5,186.5 C 130.5,186.5 131.5,186.5 132.5,186.5C 132.737,187.791 132.404,188.791 131.5,189.5C 131.218,188.222 130.551,187.222 129.5,186.5 Z"/></g>
<g><path style="opacity:0.999" fill="#fdfdfd" d="M 150.5,196.5 C 152.878,198.878 155.545,200.878 158.5,202.5C 159.167,202.5 159.5,202.833 159.5,203.5C 160.08,205.749 161.413,207.415 163.5,208.5C 168.337,213.81 171.171,220.144 172,227.5C 176.342,249.313 170.842,268.146 155.5,284C 152.778,286.358 149.778,288.191 146.5,289.5C 142.849,290.659 139.515,292.326 136.5,294.5C 132.86,296.662 128.86,298.162 124.5,299C 117.195,300.495 109.862,301.662 102.5,302.5C 96.0126,301.672 89.346,301.172 82.5,301C 83.2524,300.329 83.5858,299.496 83.5,298.5C 86.8426,290.985 90.8426,283.818 95.5,277C 105.353,276.025 115.02,274.192 124.5,271.5C 127.331,270.921 129.664,269.588 131.5,267.5C 142.06,257.813 145.06,246.147 140.5,232.5C 141.043,232.44 141.376,232.107 141.5,231.5C 140.667,229.833 139.833,228.167 139,226.5C 138.31,225.262 137.81,225.262 137.5,226.5C 135.863,224.525 134.196,222.525 132.5,220.5C 132.047,219.542 131.381,218.708 130.5,218C 131.252,217.329 131.586,216.496 131.5,215.5C 134.967,207.901 138.967,200.567 143.5,193.5C 144.365,192.417 145.365,192.251 146.5,193C 148.093,193.949 149.426,195.115 150.5,196.5 Z"/></g>
<g><path style="opacity:0.602" fill="#eaeaea" d="M 150.5,196.5 C 154.02,197.353 156.687,199.353 158.5,202.5C 155.545,200.878 152.878,198.878 150.5,196.5 Z"/></g>
<g><path style="opacity:0.622" fill="#eaeaea" d="M 159.5,203.5 C 161.587,204.585 162.92,206.251 163.5,208.5C 161.413,207.415 160.08,205.749 159.5,203.5 Z"/></g>
<g><path style="opacity:1" fill="#e9e9e9" d="M 302.5,201.5 C 301.921,204.331 300.588,206.664 298.5,208.5C 299.079,205.669 300.412,203.336 302.5,201.5 Z"/></g>
<g><path style="opacity:0.7" fill="#e9e9e9" d="M 283.5,212.5 C 285.588,214.336 286.921,216.669 287.5,219.5C 285.412,217.664 284.079,215.331 283.5,212.5 Z"/></g>
<g><path style="opacity:0.657" fill="#e2e2e2" d="M 131.5,215.5 C 131.586,216.496 131.252,217.329 130.5,218C 131.381,218.708 132.047,219.542 132.5,220.5C 129.028,219.423 128.695,217.756 131.5,215.5 Z"/></g>
<g><path style="opacity:0.578" fill="#eaeaea" d="M 292.5,219.5 C 292.205,221.423 291.372,223.09 290,224.5C 288.961,223.756 288.461,222.756 288.5,221.5C 289.117,221.611 289.617,221.944 290,222.5C 290.377,221.058 291.21,220.058 292.5,219.5 Z"/></g>
<g><path style="opacity:0.192" fill="#eaeaea" d="M 140.5,232.5 C 139.5,230.5 138.5,228.5 137.5,226.5C 137.81,225.262 138.31,225.262 139,226.5C 139.833,228.167 140.667,229.833 141.5,231.5C 141.376,232.107 141.043,232.44 140.5,232.5 Z"/></g>
<g><path style="opacity:0.999" fill="#fcfcfc" d="M 207.5,242.5 C 208.497,261.993 208.83,281.66 208.5,301.5C 198.667,301.972 189,301.472 179.5,300C 180.297,296.255 180.797,292.421 181,288.5C 190.098,273.303 198.931,257.969 207.5,242.5 Z"/></g>
<g><path style="opacity:0.999" fill="#fdfdfd" d="M 22.5,252.5 C 26.795,254.808 30.795,257.474 34.5,260.5C 37.4379,262.977 40.7712,264.977 44.5,266.5C 45.1067,266.376 45.44,266.043 45.5,265.5C 55.8753,270.088 66.5419,273.421 77.5,275.5C 78.2625,276.268 79.2625,276.768 80.5,277C 79.7476,277.671 79.4142,278.504 79.5,279.5C 77.0031,285.165 74.0031,290.498 70.5,295.5C 68.9373,296.945 67.604,298.611 66.5,300.5C 54.9589,298.209 43.9589,294.542 33.5,289.5C 31.8185,287.992 29.8185,286.992 27.5,286.5C 25.8185,284.992 23.8185,283.992 21.5,283.5C 15.9508,280.944 10.9508,277.61 6.5,273.5C 5.85917,272.518 5.19251,271.518 4.5,270.5C 5.12723,269.583 5.46056,268.583 5.5,267.5C 8.32963,261.17 11.663,255.17 15.5,249.5C 16.1174,249.389 16.6174,249.056 17,248.5C 18.451,250.464 20.2843,251.797 22.5,252.5 Z"/></g>
<g><path style="opacity:0.635" fill="#eaeaea" d="M 22.5,252.5 C 20.2843,251.797 18.451,250.464 17,248.5C 16.6174,249.056 16.1174,249.389 15.5,249.5C 15.8425,247.775 16.8425,247.275 18.5,248C 20.0414,249.371 21.3747,250.871 22.5,252.5 Z"/></g>
<g><path style="opacity:0.114" fill="#e9e9e9" d="M 34.5,260.5 C 38.2901,261.895 41.9568,263.562 45.5,265.5C 45.44,266.043 45.1067,266.376 44.5,266.5C 40.7712,264.977 37.4379,262.977 34.5,260.5 Z"/></g>
<g><path style="opacity:0.976" fill="#e5e5e5" d="M 5.5,267.5 C 5.46056,268.583 5.12723,269.583 4.5,270.5C 5.19251,271.518 5.85917,272.518 6.5,273.5C 4.51595,273.516 3.51595,272.516 3.5,270.5C 3.45344,268.962 4.12011,267.962 5.5,267.5 Z"/></g>
<g><path style="opacity:0.98" fill="#e6e6e6" d="M 131.5,267.5 C 129.664,269.588 127.331,270.921 124.5,271.5C 126.336,269.412 128.669,268.079 131.5,267.5 Z"/></g>
<g><path style="opacity:0.804" fill="#e1e1e1" d="M 77.5,275.5 C 83.3506,274.756 84.0173,276.089 79.5,279.5C 79.4142,278.504 79.7476,277.671 80.5,277C 79.2625,276.768 78.2625,276.268 77.5,275.5 Z"/></g>
<g><path style="opacity:0.984" fill="#e8e8e8" d="M 21.5,283.5 C 23.8185,283.992 25.8185,284.992 27.5,286.5C 24.911,286.539 22.911,285.539 21.5,283.5 Z"/></g>
<g><path style="opacity:0.992" fill="#e9e9e9" d="M 27.5,286.5 C 29.8185,286.992 31.8185,287.992 33.5,289.5C 30.911,289.539 28.911,288.539 27.5,286.5 Z"/></g>
<g><path style="opacity:0.635" fill="#e6e6e6" d="M 146.5,289.5 C 143.753,292.207 140.42,293.873 136.5,294.5C 139.515,292.326 142.849,290.659 146.5,289.5 Z"/></g>
<g><path style="opacity:0.098" fill="#e9e9e9" d="M 70.5,295.5 C 70.3304,298.204 68.9971,299.871 66.5,300.5C 67.604,298.611 68.9373,296.945 70.5,295.5 Z"/></g>
<g><path style="opacity:0.679" fill="#dddddd" d="M 83.5,298.5 C 83.5858,299.496 83.2524,300.329 82.5,301C 89.346,301.172 96.0126,301.672 102.5,302.5C 95.5,302.5 88.5,302.5 81.5,302.5C 81.2291,300.62 81.8958,299.287 83.5,298.5 Z"/></g>
</svg>
